<svg id="Layer_1" data-name="Layer 1" xmlns="http://www.w3.org/2000/svg" viewBox="0 0 425.2 482"><defs><style>.cls-1,.cls-2{fill:none;stroke-miterlimit:10;stroke-width:36px;}.cls-1{stroke:#062642;}.cls-2{stroke:#25071c;}</style></defs><title>Artboard 1</title><line class="cls-1" x1="91.08" y1="128.88" x2="91.08" y2="332.98"/><path class="cls-1" d="M205,73.87c54.79,0,99.21,35.16,99.21,78.53S259.8,230.93,205,230.93"/><line class="cls-1" x1="106.36" y1="315.14" x2="276.44" y2="315.14"/><line class="cls-1" x1="75.85" y1="73.87" x2="176.49" y2="73.87"/><line class="cls-1" x1="105.71" y1="146.72" x2="219.09" y2="146.72"/><path class="cls-1" d="M143.63,73.87c21,.41,41,.41,61.72,0"/><line class="cls-1" x1="105.8" y1="230.93" x2="205.01" y2="230.93"/><line class="cls-2" x1="148.02" y1="388" x2="248.66" y2="388"/><line class="cls-2" x1="75.85" y1="388" x2="176.49" y2="388"/><path class="cls-2" d="M248,388c30.44.4,63.48-11.36,83.13-35.36,18.36-22.42,21.19-52.13,6.27-77.16a84.74,84.74,0,0,0-31.77-30.17"/></svg>