<?xml version="1.0" standalone="no"?>
<!DOCTYPE svg PUBLIC "-//W3C//DTD SVG 20010904//EN"
 "http://www.w3.org/TR/2001/REC-SVG-20010904/DTD/svg10.dtd">
<svg version="1.0" xmlns="http://www.w3.org/2000/svg"
 width="180.000000pt" height="180.000000pt" viewBox="0 0 180.000000 180.000000"
 preserveAspectRatio="xMidYMid meet">
<metadata>
Created by potrace 1.16, written by Peter Selinger 2001-2019
</metadata>
<g transform="translate(0.000000,180.000000) scale(0.100000,-0.100000)"
fill="#000000" stroke="none">
<path d="M230 1666 l0 -96 343 0 c188 0 369 -5 402 -10 162 -26 305 -160 305
-284 0 -94 -87 -202 -206 -258 l-69 -32 -302 -4 -303 -4 0 116 0 116 275 0
275 0 0 95 0 95 -370 0 -370 0 0 -520 0 -520 515 0 515 0 0 100 0 100 -420 0
-420 0 0 110 0 110 255 0 c343 0 430 16 595 111 14 7 52 41 85 75 149 150 178
357 74 533 -35 58 -144 156 -212 190 -131 65 -125 64 -564 68 l-403 4 0 -95z"/>
<path d="M1429 790 l-67 -67 29 -27 c57 -54 82 -111 82 -185 0 -56 -5 -74 -28
-111 -49 -77 -129 -136 -224 -163 -22 -7 -228 -13 -521 -16 l-485 -6 -3 -97
-3 -98 460 0 c522 0 567 5 706 70 126 60 196 126 252 240 36 73 37 78 37 185
0 102 -3 115 -32 177 -27 60 -114 170 -131 167 -3 -1 -36 -31 -72 -69z"/>
</g>
</svg>
